<?xml version="1.0" encoding="UTF-8" standalone="no"?>
<!DOCTYPE svg PUBLIC "-//W3C//DTD SVG 1.0//EN" "http://www.w3.org/TR/2001/REC-SVG-20010904/DTD/svg10.dtd">
<!-- Generated by Microsoft Visio 11.0, SVG Export, v1.0 OscRemoting4.svg Page-1 -->
<svg xmlns="http://www.w3.org/2000/svg" xmlns:xlink="http://www.w3.org/1999/xlink" xmlns:ev="http://www.w3.org/2001/xml-events"
		xmlns:v="http://schemas.microsoft.com/visio/2003/SVGExtensions/" width="8.5in" height="11in" viewBox="0 0 612 792"
		xml:space="preserve" color-interpolation-filters="sRGB" class="st13">
	<v:documentProperties v:langID="1033" v:viewMarkup="false">
		<v:userDefs>
			<v:ud v:nameU="msvNoAutoConnect" v:val="VT0(1):26"/>
		</v:userDefs>
	</v:documentProperties>

	<style type="text/css">
	<![CDATA[
		.st1 {fill:none;stroke:none;stroke-linecap:round;stroke-linejoin:round;stroke-width:0.75}
		.st2 {fill:#000000;font-family:Calibri;font-size:1.00001em}
		.st3 {marker-end:url(#mrkr2-9);stroke:#000000;stroke-linecap:round;stroke-linejoin:round;stroke-width:0.75}
		.st4 {fill:#000000;fill-opacity:1;stroke:#000000;stroke-opacity:1;stroke-width:0.22935779816514}
		.st5 {stroke:#000000;stroke-linecap:round;stroke-linejoin:round;stroke-width:0.75}
		.st6 {fill:#ffff00;stroke:#000000;stroke-linecap:round;stroke-linejoin:round;stroke-width:0.75}
		.st7 {fill:#d8d8d8;stroke:#000000;stroke-linecap:round;stroke-linejoin:round;stroke-width:0.75}
		.st8 {fill:#000000;font-family:Consolas;font-size:0.75em}
		.st9 {font-size:1em}
		.st10 {fill:#ffffff;stroke:#000000;stroke-linecap:round;stroke-linejoin:round;stroke-width:0.25}
		.st11 {fill:none;stroke:none;stroke-linecap:round;stroke-linejoin:round;stroke-width:0.25}
		.st12 {fill:#000000;font-family:Calibri;font-size:0.75em}
		.st13 {fill:none;fill-rule:evenodd;font-size:12px;overflow:visible;stroke-linecap:square;stroke-miterlimit:3}
	]]>
	</style>

	<defs id="Markers">
		<g id="lend2">
			<path d="M 1 1 L 0 0 L 1 -1 L 1 1 " style="stroke:none"/>
		</g>
		<marker id="mrkr2-9" class="st4" v:arrowType="2" v:arrowSize="2" v:setback="4.36" refX="-4.36" orient="auto"
				markerUnits="strokeWidth" overflow="visible">
			<use xlink:href="#lend2" transform="scale(-4.36,-4.36) "/>
		</marker>
	</defs>
	<g v:mID="0" v:index="1" v:groupContext="foregroundPage">
		<title>Page-1</title>
		<v:pageProperties v:drawingScale="1" v:pageScale="1" v:drawingUnits="19" v:shadowOffsetX="9" v:shadowOffsetY="-9"/>
		<g id="shape11-1" v:mID="11" v:groupContext="shape" transform="translate(36,-657)">
			<title>Sheet.11</title>
			<desc>Packet</desc>
			<v:textBlock v:margins="rect(4,4,4,4)"/>
			<v:textRect cx="58.5" cy="783" width="117" height="18"/>
			<rect x="0" y="774" width="117" height="18" class="st1"/>
			<text x="80.53" y="786.6" class="st2" v:langID="1033"><v:paragraph v:horizAlign="2"/><v:tabList/>Packet</text>		</g>
		<g id="shape2-4" v:mID="2" v:groupContext="shape" transform="translate(297,-684)">
			<title>Sheet.2</title>
			<path d="M108 774 L121.5 774 A4.5 4.5 0 0 1 126 778.5 L126 787.5 A4.5 4.5 0 0 1 121.5 792 L4.5 792 A4.5 4.5 0 0 1 0 787.5
						 L0 778.5 A4.5 4.5 0 0 1 4.5 774 L14.73 774" class="st3"/>
		</g>
		<g id="shape3-10" v:mID="3" v:groupContext="shape" transform="translate(153,-702)">
			<title>Sheet.3</title>
			<path d="M0 792 L315 792" class="st5"/>
		</g>
		<g id="shape1-13" v:mID="1" v:groupContext="shape" transform="translate(315,-693)">
			<title>Sheet.1</title>
			<desc>Packet</desc>
			<v:textBlock v:margins="rect(4,4,4,4)"/>
			<v:textRect cx="45" cy="783" width="90" height="18"/>
			<rect x="0" y="774" width="90" height="18" rx="4.5" ry="4.5" class="st6"/>
			<text x="28.77" y="786.6" class="st2" v:langID="1033"><v:paragraph v:horizAlign="1"/><v:tabList/>Packet</text>		</g>
		<g id="shape6-16" v:mID="6" v:groupContext="shape" transform="translate(153,-666)">
			<title>Sheet.6</title>
			<path d="M0 792 L315 792" class="st5"/>
		</g>
		<g id="shape4-19" v:mID="4" v:groupContext="shape" transform="translate(202.5,-657)">
			<title>Sheet.4</title>
			<desc>psize</desc>
			<v:textBlock v:margins="rect(4,4,4,4)"/>
			<v:textRect cx="27" cy="783" width="54" height="18"/>
			<rect x="0" y="774" width="54" height="18" rx="9" ry="9" class="st7"/>
			<text x="14.77" y="786.6" class="st2" v:langID="1033"><v:paragraph v:horizAlign="1"/><v:tabList/>psize</text>		</g>
		<g id="shape9-22" v:mID="9" v:groupContext="shape" transform="translate(36,-693)">
			<title>Sheet.9</title>
			<desc>Stream</desc>
			<v:textBlock v:margins="rect(4,4,4,4)"/>
			<v:textRect cx="58.5" cy="783" width="117" height="18"/>
			<rect x="0" y="774" width="117" height="18" class="st1"/>
			<text x="77.98" y="786.6" class="st2" v:langID="1033"><v:paragraph v:horizAlign="2"/><v:tabList/>Stream</text>		</g>
		<g id="shape16-25" v:mID="16" v:groupContext="shape" transform="translate(315,-657)">
			<title>Sheet.16</title>
			<desc>Bundle</desc>
			<v:textBlock v:margins="rect(4,4,4,4)"/>
			<v:textRect cx="45" cy="783" width="90" height="18"/>
			<rect x="0" y="774" width="90" height="18" rx="4.5" ry="4.5" class="st6"/>
			<text x="27.92" y="786.6" class="st2" v:langID="1033"><v:paragraph v:horizAlign="1"/><v:tabList/>Bundle</text>		</g>
		<g id="shape18-28" v:mID="18" v:groupContext="shape" transform="translate(945,85.5) rotate(90)">
			<title>Sheet.18</title>
			<path d="M0 792 L9 792" class="st5"/>
		</g>
		<g id="shape19-31" v:mID="19" v:groupContext="shape" transform="translate(945,121.5) rotate(90)">
			<title>Sheet.19</title>
			<path d="M0 792 L9 792" class="st5"/>
		</g>
		<g id="shape22-34" v:mID="22" v:groupContext="shape" transform="translate(1260,121.5) rotate(90)">
			<title>Sheet.22</title>
			<path d="M0 792 L9 792" class="st5"/>
		</g>
		<g id="shape23-37" v:mID="23" v:groupContext="shape" transform="translate(1260,85.5) rotate(90)">
			<title>Sheet.23</title>
			<path d="M0 792 L9 792" class="st5"/>
		</g>
		<g id="shape15-40" v:mID="15" v:groupContext="shape" transform="translate(315,-630)">
			<title>Sheet.15</title>
			<desc>Element</desc>
			<v:textBlock v:margins="rect(4,4,4,4)"/>
			<v:textRect cx="45" cy="783" width="90" height="18"/>
			<rect x="0" y="774" width="90" height="18" rx="4.5" ry="4.5" class="st6"/>
			<text x="24.77" y="786.6" class="st2" v:langID="1033"><v:paragraph v:horizAlign="1"/><v:tabList/>Element</text>		</g>
		<g id="shape17-43" v:mID="17" v:groupContext="shape" transform="translate(315,918) rotate(180)">
			<title>Sheet.17</title>
			<path d="M36 792 L22.5 792 A4.5 4.5 0 0 1 18 787.5 L18 769.5 A4.5 4.5 -180 0 0 13.5 765 L3.27 765" class="st3"/>
		</g>
		<g id="shape24-48" v:mID="24" v:groupContext="shape" transform="translate(441,-639) scale(-1,1)">
			<title>Sheet.24</title>
			<path d="M36 792 L22.5 792 A4.5 4.5 0 0 1 18 787.5 L18 769.5 A4.5 4.5 -180 0 0 13.5 765 L0 765" class="st5"/>
		</g>
		<g id="shape26-51" v:mID="26" v:groupContext="shape" transform="translate(36,-603)">
			<title>Sheet.26</title>
			<desc>Bundle</desc>
			<v:textBlock v:margins="rect(4,4,4,4)"/>
			<v:textRect cx="58.5" cy="783" width="117" height="18"/>
			<rect x="0" y="774" width="117" height="18" class="st1"/>
			<text x="78.83" y="786.6" class="st2" v:langID="1033"><v:paragraph v:horizAlign="2"/><v:tabList/>Bundle</text>		</g>
		<g id="shape27-54" v:mID="27" v:groupContext="shape" transform="translate(153,-612)">
			<title>Sheet.27</title>
			<path d="M0 792 L315 792" class="st5"/>
		</g>
		<g id="shape29-57" v:mID="29" v:groupContext="shape" transform="translate(945,175.5) rotate(90)">
			<title>Sheet.29</title>
			<path d="M0 792 L9 792" class="st5"/>
		</g>
		<g id="shape30-60" v:mID="30" v:groupContext="shape" transform="translate(1260,175.5) rotate(90)">
			<title>Sheet.30</title>
			<path d="M0 792 L9 792" class="st5"/>
		</g>
		<g id="shape31-63" v:mID="31" v:groupContext="shape" transform="translate(351,-603)">
			<title>Sheet.31</title>
			<desc>Element</desc>
			<v:textBlock v:margins="rect(4,4,4,4)"/>
			<v:textRect cx="27" cy="783" width="54" height="18"/>
			<rect x="0" y="774" width="54" height="18" rx="4.5" ry="4.5" class="st6"/>
			<text x="6.77" y="786.6" class="st2" v:langID="1033"><v:paragraph v:horizAlign="1"/><v:tabList/>Element</text>		</g>
		<g id="shape34-66" v:mID="34" v:groupContext="shape" transform="translate(171,-603)">
			<title>Sheet.34</title>
			<desc>#bundle\0</desc>
			<v:textBlock v:margins="rect(4,4,4,4)"/>
			<v:textRect cx="27" cy="783" width="54" height="18"/>
			<rect x="0" y="774" width="54" height="18" rx="9" ry="9" class="st7"/>
			<text x="4.73" y="785.7" class="st8" v:langID="1033"><v:paragraph v:horizAlign="1"/><v:tabList/>#bundl<tspan
						class="st9" v:langID="1031">e</tspan><tspan class="st9" v:langID="1031">\</tspan>0</text>		</g>
		<g id="shape28-71" v:mID="28" v:groupContext="shape" transform="translate(297,-594)">
			<title>Sheet.28</title>
			<path d="M108 774 L121.5 774 A4.5 4.5 0 0 1 126 778.5 L126 787.5 A4.5 4.5 0 0 1 121.5 792 L4.5 792 A4.5 4.5 0 0 1 0 787.5
						 L0 778.5 A4.5 4.5 0 0 1 4.5 774 L14.73 774" class="st3"/>
		</g>
		<g id="shape32-76" v:mID="32" v:groupContext="shape" transform="translate(234,-603)">
			<title>Sheet.32</title>
			<desc>TimeTag</desc>
			<v:textBlock v:margins="rect(4,4,4,4)"/>
			<v:textRect cx="27" cy="783" width="54" height="18"/>
			<rect x="0" y="774" width="54" height="18" rx="9" ry="9" class="st7"/>
			<text x="9.68" y="785.7" class="st8" v:langID="1031"><v:paragraph v:horizAlign="1"/><v:tabList/>TimeTag</text>		</g>
		<g id="shape35-79" v:mID="35" v:groupContext="shape" transform="translate(36,-567)">
			<title>Sheet.35</title>
			<desc>Element</desc>
			<v:textBlock v:margins="rect(4,4,4,4)"/>
			<v:textRect cx="58.5" cy="783" width="117" height="18"/>
			<rect x="0" y="774" width="117" height="18" class="st1"/>
			<text x="72.53" y="786.6" class="st2" v:langID="1031"><v:paragraph v:horizAlign="2"/><v:tabList/>Element</text>		</g>
		<g id="shape36-82" v:mID="36" v:groupContext="shape" transform="translate(153,-576)">
			<title>Sheet.36</title>
			<path d="M0 792 L315 792" class="st5"/>
		</g>
		<g id="shape37-85" v:mID="37" v:groupContext="shape" transform="translate(945,211.5) rotate(90)">
			<title>Sheet.37</title>
			<path d="M0 792 L9 792" class="st5"/>
		</g>
		<g id="shape38-88" v:mID="38" v:groupContext="shape" transform="translate(1260,211.5) rotate(90)">
			<title>Sheet.38</title>
			<path d="M0 792 L9 792" class="st5"/>
		</g>
		<g id="shape39-91" v:mID="39" v:groupContext="shape" transform="translate(315,-567)">
			<title>Sheet.39</title>
			<desc>ElementValue</desc>
			<v:textBlock v:margins="rect(4,4,4,4)"/>
			<v:textRect cx="45" cy="783" width="90" height="18"/>
			<rect x="0" y="774" width="90" height="18" rx="4.5" ry="4.5" class="st6"/>
			<text x="10.97" y="786.6" class="st2" v:langID="1033"><v:paragraph v:horizAlign="1"/><v:tabList/>Element<tspan
						class="st9" v:langID="1031">Value</tspan></text>		</g>
		<g id="shape40-95" v:mID="40" v:groupContext="shape" transform="translate(171,-567)">
			<title>Sheet.40</title>
			<desc>Address</desc>
			<v:textBlock v:margins="rect(4,4,4,4)"/>
			<v:textRect cx="27" cy="783" width="54" height="18"/>
			<rect x="0" y="774" width="54" height="18" rx="9" ry="9" class="st7"/>
			<text x="9.68" y="785.7" class="st8" v:langID="1031"><v:paragraph v:horizAlign="1"/><v:tabList/>Address</text>		</g>
		<g id="shape41-98" v:mID="41" v:groupContext="shape" transform="translate(297,-558)">
			<title>Sheet.41</title>
			<path d="M108 774 L121.5 774 A4.5 4.5 0 0 1 126 778.5 L126 787.5 A4.5 4.5 0 0 1 121.5 792 L4.5 792 A4.5 4.5 0 0 1 0 787.5
						 L0 778.5 A4.5 4.5 0 0 1 4.5 774 L14.73 774" class="st3"/>
		</g>
		<g id="shape42-103" v:mID="42" v:groupContext="shape" transform="translate(234,-567)">
			<title>Sheet.42</title>
			<desc>TypeTag</desc>
			<v:textBlock v:margins="rect(4,4,4,4)"/>
			<v:textRect cx="27" cy="783" width="54" height="18"/>
			<rect x="0" y="774" width="54" height="18" rx="9" ry="9" class="st7"/>
			<text x="15.36" y="785.7" class="st8" v:langID="1031"><v:paragraph v:horizAlign="2"/><v:tabList/>TypeTag</text>		</g>
		<g id="shape44-106" v:mID="44" v:groupContext="shape" transform="translate(36,-531)">
			<title>Sheet.44</title>
			<desc>ElementValue</desc>
			<v:textBlock v:margins="rect(4,4,4,4)"/>
			<v:textRect cx="58.5" cy="783" width="117" height="18"/>
			<rect x="0" y="774" width="117" height="18" class="st1"/>
			<text x="44.95" y="786.6" class="st2" v:langID="1031"><v:paragraph v:horizAlign="2"/><v:tabList/>ElementValue</text>		</g>
		<g id="shape45-109" v:mID="45" v:groupContext="shape" transform="translate(154.061,-540)">
			<title>Sheet.45</title>
			<path d="M0 792 L313.94 792" class="st5"/>
		</g>
		<g id="shape46-112" v:mID="46" v:groupContext="shape" transform="translate(315,-531)">
			<title>Sheet.46</title>
			<desc>Value</desc>
			<v:textBlock v:margins="rect(4,4,4,4)"/>
			<v:textRect cx="45" cy="783" width="90" height="18"/>
			<rect x="0" y="774" width="90" height="18" rx="4.5" ry="4.5" class="st6"/>
			<text x="31.21" y="786.6" class="st2" v:langID="1031"><v:paragraph v:horizAlign="1"/><v:tabList/>Value</text>		</g>
		<g id="shape47-115" v:mID="47" v:groupContext="shape" transform="translate(945,247.5) rotate(90)">
			<title>Sheet.47</title>
			<path d="M0 792 L9 792" class="st5"/>
		</g>
		<g id="shape48-118" v:mID="48" v:groupContext="shape" transform="translate(1260,247.5) rotate(90)">
			<title>Sheet.48</title>
			<path d="M0 792 L9 792" class="st5"/>
		</g>
		<g id="shape49-121" v:mID="49" v:groupContext="shape" transform="translate(315,-504)">
			<title>Sheet.49</title>
			<desc>Array</desc>
			<v:textBlock v:margins="rect(4,4,4,4)"/>
			<v:textRect cx="45" cy="783" width="90" height="18"/>
			<rect x="0" y="774" width="90" height="18" rx="4.5" ry="4.5" class="st6"/>
			<text x="31.75" y="786.6" class="st2" v:langID="1031"><v:paragraph v:horizAlign="1"/><v:tabList/>Array</text>		</g>
		<g id="shape50-124" v:mID="50" v:groupContext="shape" transform="translate(315,1044) rotate(180)">
			<title>Sheet.50</title>
			<path d="M36 792 L22.5 792 A4.5 4.5 0 0 1 18 787.5 L18 769.5 A4.5 4.5 -180 0 0 13.5 765 L3.27 765" class="st3"/>
		</g>
		<g id="shape51-129" v:mID="51" v:groupContext="shape" transform="translate(441,-513) scale(-1,1)">
			<title>Sheet.51</title>
			<path d="M36 792 L22.5 792 A4.5 4.5 0 0 1 18 787.5 L18 769.5 A4.5 4.5 -180 0 0 13.5 765 L0 765" class="st5"/>
		</g>
		<g id="shape8-132" v:mID="8" v:groupContext="shape" transform="translate(36,-477)">
			<title>Sheet.8</title>
			<desc>Value</desc>
			<v:textBlock v:margins="rect(4,4,4,4)"/>
			<v:textRect cx="58.5" cy="783" width="117" height="18"/>
			<rect x="0" y="774" width="117" height="18" class="st1"/>
			<text x="85.41" y="786.6" class="st2" v:langID="1031"><v:paragraph v:horizAlign="2"/><v:tabList/>Value</text>		</g>
		<g id="shape10-135" v:mID="10" v:groupContext="shape" transform="translate(154.061,-486)">
			<title>Sheet.10</title>
			<path d="M0 792 L313.94 792" class="st5"/>
		</g>
		<g id="shape25-138" v:mID="25" v:groupContext="shape" transform="translate(945,301.5) rotate(90)">
			<title>Sheet.25</title>
			<path d="M0 792 L9 792" class="st5"/>
		</g>
		<g id="shape33-141" v:mID="33" v:groupContext="shape" transform="translate(1260,301.5) rotate(90)">
			<title>Sheet.33</title>
			<path d="M0 792 L9 792" class="st5"/>
		</g>
		<g id="shape52-144" v:mID="52" v:groupContext="shape" transform="translate(315,1098) rotate(180)">
			<title>Sheet.52</title>
			<path d="M36 792 L22.5 792 A4.5 4.5 0 0 1 18 787.5 L18 769.5 A4.5 4.5 -180 0 0 13.5 765 L3.27 765" class="st3"/>
		</g>
		<g id="shape53-149" v:mID="53" v:groupContext="shape" transform="translate(441,-459) scale(-1,1)">
			<title>Sheet.53</title>
			<path d="M36 792 L22.5 792 A4.5 4.5 0 0 1 18 787.5 L18 769.5 A4.5 4.5 -180 0 0 13.5 765 L0 765" class="st5"/>
		</g>
		<g id="group57-152" transform="translate(297,-450)" v:mID="57" v:groupContext="group">
			<title>Sheet.57</title>
			<g id="shape58-153" v:mID="58" v:groupContext="shape" transform="translate(18,0)">
				<title>Sheet.58</title>
				<desc>true</desc>
				<v:textBlock v:margins="rect(4,4,4,4)"/>
				<v:textRect cx="45" cy="783" width="90" height="18"/>
				<rect x="0" y="774" width="90" height="18" rx="4.5" ry="4.5" class="st7"/>
				<text x="34.76" y="786.6" class="st2" v:langID="1031"><v:paragraph v:horizAlign="1"/><v:tabList/>true</text>			</g>
			<g id="shape91-156" v:mID="91" v:groupContext="shape" transform="translate(90,-2.25)">
				<title>Sheet.91</title>
				<desc>T</desc>
				<v:textBlock v:margins="rect(0,0,0,0)"/>
				<v:textRect cx="6.75" cy="785.25" width="13.5" height="13.5"/>
				<rect x="0" y="778.5" width="13.5" height="13.5" class="st10"/>
				<text x="4.28" y="787.95" class="st8" v:langID="1031"><v:paragraph v:horizAlign="1"/><v:tabList/>T</text>			</g>
		</g>
		<g id="group92-159" transform="translate(297,-423)" v:mID="92" v:groupContext="group">
			<title>Sheet.92</title>
			<g id="shape93-160" v:mID="93" v:groupContext="shape" transform="translate(18,0)">
				<title>Sheet.93</title>
				<desc>false</desc>
				<v:textBlock v:margins="rect(4,4,4,4)"/>
				<v:textRect cx="45" cy="783" width="90" height="18"/>
				<rect x="0" y="774" width="90" height="18" rx="4.5" ry="4.5" class="st7"/>
				<text x="33.59" y="786.6" class="st2" v:langID="1031"><v:paragraph v:horizAlign="1"/><v:tabList/>false</text>			</g>
			<g id="shape94-163" v:mID="94" v:groupContext="shape" transform="translate(18,1539) rotate(180)">
				<title>Sheet.94</title>
				<path d="M18 792 L18 760.5 A4.5 4.5 -180 0 0 13.5 756 L3.27 756" class="st3"/>
			</g>
			<g id="shape95-168" v:mID="95" v:groupContext="shape" transform="translate(126,-9) scale(-1,1)">
				<title>Sheet.95</title>
				<path d="M18 792 L4.5 792 A4.5 4.5 0 0 1 0 787.5 L0 756" class="st5"/>
			</g>
			<g id="shape96-171" v:mID="96" v:groupContext="shape" transform="translate(90,-2.25)">
				<title>Sheet.96</title>
				<desc>F</desc>
				<v:textBlock v:margins="rect(0,0,0,0)"/>
				<v:textRect cx="6.75" cy="785.25" width="13.5" height="13.5"/>
				<rect x="0" y="778.5" width="13.5" height="13.5" class="st10"/>
				<text x="4.28" y="787.95" class="st8" v:langID="1031"><v:paragraph v:horizAlign="1"/><v:tabList/>F</text>			</g>
		</g>
		<g id="group97-174" transform="translate(297,-396)" v:mID="97" v:groupContext="group">
			<title>Sheet.97</title>
			<g id="shape98-175" v:mID="98" v:groupContext="shape" transform="translate(18,0)">
				<title>Sheet.98</title>
				<desc>null</desc>
				<v:textBlock v:margins="rect(4,4,4,4)"/>
				<v:textRect cx="45" cy="783" width="90" height="18"/>
				<rect x="0" y="774" width="90" height="18" rx="4.5" ry="4.5" class="st7"/>
				<text x="35.94" y="786.6" class="st2" v:langID="1031"><v:paragraph v:horizAlign="1"/><v:tabList/>null</text>			</g>
			<g id="shape99-178" v:mID="99" v:groupContext="shape" transform="translate(18,1539) rotate(180)">
				<title>Sheet.99</title>
				<path d="M18 792 L18 760.5 A4.5 4.5 -180 0 0 13.5 756 L3.27 756" class="st3"/>
			</g>
			<g id="shape100-183" v:mID="100" v:groupContext="shape" transform="translate(126,-9) scale(-1,1)">
				<title>Sheet.100</title>
				<path d="M18 792 L4.5 792 A4.5 4.5 0 0 1 0 787.5 L0 756" class="st5"/>
			</g>
			<g id="shape101-186" v:mID="101" v:groupContext="shape" transform="translate(90,-2.25)">
				<title>Sheet.101</title>
				<desc>N</desc>
				<v:textBlock v:margins="rect(0,0,0,0)"/>
				<v:textRect cx="6.75" cy="785.25" width="13.5" height="13.5"/>
				<rect x="0" y="778.5" width="13.5" height="13.5" class="st10"/>
				<text x="4.28" y="787.95" class="st8" v:langID="1031"><v:paragraph v:horizAlign="1"/><v:tabList/>N</text>			</g>
		</g>
		<g id="group102-189" transform="translate(297,-369)" v:mID="102" v:groupContext="group">
			<title>Sheet.102</title>
			<g id="shape103-190" v:mID="103" v:groupContext="shape" transform="translate(18,0)">
				<title>Sheet.103</title>
				<desc>infinitum</desc>
				<v:textBlock v:margins="rect(4,4,4,4)"/>
				<v:textRect cx="45" cy="783" width="90" height="18"/>
				<rect x="0" y="774" width="90" height="18" rx="4.5" ry="4.5" class="st7"/>
				<text x="22.78" y="786.6" class="st2" v:langID="1031"><v:paragraph v:horizAlign="1"/><v:tabList/>infinitum</text>			</g>
			<g id="shape104-193" v:mID="104" v:groupContext="shape" transform="translate(18,1539) rotate(180)">
				<title>Sheet.104</title>
				<path d="M18 792 L18 760.5 A4.5 4.5 -180 0 0 13.5 756 L3.27 756" class="st3"/>
			</g>
			<g id="shape105-198" v:mID="105" v:groupContext="shape" transform="translate(126,-9) scale(-1,1)">
				<title>Sheet.105</title>
				<path d="M18 792 L4.5 792 A4.5 4.5 0 0 1 0 787.5 L0 756" class="st5"/>
			</g>
			<g id="shape106-201" v:mID="106" v:groupContext="shape" transform="translate(90,-2.25)">
				<title>Sheet.106</title>
				<desc>I</desc>
				<v:textBlock v:margins="rect(0,0,0,0)"/>
				<v:textRect cx="6.75" cy="785.25" width="13.5" height="13.5"/>
				<rect x="0" y="778.5" width="13.5" height="13.5" class="st10"/>
				<text x="4.28" y="787.95" class="st8" v:langID="1031"><v:paragraph v:horizAlign="1"/><v:tabList/>I</text>			</g>
		</g>
		<g id="shape107-204" v:mID="107" v:groupContext="shape" transform="translate(36,-306)">
			<title>Sheet.107</title>
			<desc>ArrayValue</desc>
			<v:textBlock v:margins="rect(4,4,4,4)"/>
			<v:textRect cx="58.5" cy="783" width="117" height="18"/>
			<rect x="0" y="774" width="117" height="18" class="st1"/>
			<text x="58.92" y="786.6" class="st2" v:langID="1031"><v:paragraph v:horizAlign="2"/><v:tabList/>ArrayValue</text>		</g>
		<g id="shape108-207" v:mID="108" v:groupContext="shape" transform="translate(153,-315)">
			<title>Sheet.108</title>
			<path d="M0 792 L315 792" class="st5"/>
		</g>
		<g id="shape109-210" v:mID="109" v:groupContext="shape" transform="translate(315,-252)">
			<title>Sheet.109</title>
			<desc>int32</desc>
			<v:textBlock v:margins="rect(4,4,4,4)"/>
			<v:textRect cx="45" cy="783" width="90" height="18"/>
			<rect x="0" y="774" width="90" height="18" rx="4.5" ry="4.5" class="st7"/>
			<text x="32.38" y="786.6" class="st2" v:langID="1031"><v:paragraph v:horizAlign="1"/><v:tabList/>int32</text>		</g>
		<g id="shape110-213" v:mID="110" v:groupContext="shape" transform="translate(945,472.5) rotate(90)">
			<title>Sheet.110</title>
			<path d="M0 792 L9 792" class="st5"/>
		</g>
		<g id="shape111-216" v:mID="111" v:groupContext="shape" transform="translate(1260,472.5) rotate(90)">
			<title>Sheet.111</title>
			<path d="M0 792 L9 792" class="st5"/>
		</g>
		<g id="shape112-219" v:mID="112" v:groupContext="shape" transform="translate(315,1269) rotate(180)">
			<title>Sheet.112</title>
			<path d="M36 792 L22.5 792 A4.5 4.5 0 0 1 18 787.5 L18 769.5 A4.5 4.5 -180 0 0 13.5 765 L3.27 765" class="st3"/>
		</g>
		<g id="shape113-224" v:mID="113" v:groupContext="shape" transform="translate(441,-288) scale(-1,1)">
			<title>Sheet.113</title>
			<path d="M36 792 L22.5 792 A4.5 4.5 0 0 1 18 787.5 L18 769.5 A4.5 4.5 -180 0 0 13.5 765 L0 765" class="st5"/>
		</g>
		<g id="shape114-227" v:mID="114" v:groupContext="shape" transform="translate(387,-254.25)">
			<title>Sheet.114</title>
			<desc>i</desc>
			<v:textBlock v:margins="rect(0,0,0,0)"/>
			<v:textRect cx="6.75" cy="785.25" width="13.5" height="13.5"/>
			<rect x="0" y="778.5" width="13.5" height="13.5" class="st10"/>
			<text x="4.28" y="787.95" class="st8" v:langID="1031"><v:paragraph v:horizAlign="1"/><v:tabList/>i</text>		</g>
		<g id="shape116-230" v:mID="116" v:groupContext="shape" transform="translate(315,-225)">
			<title>Sheet.116</title>
			<desc>int64</desc>
			<v:textBlock v:margins="rect(4,4,4,4)"/>
			<v:textRect cx="45" cy="783" width="90" height="18"/>
			<rect x="0" y="774" width="90" height="18" rx="4.5" ry="4.5" class="st7"/>
			<text x="32.38" y="786.6" class="st2" v:langID="1031"><v:paragraph v:horizAlign="1"/><v:tabList/>int64</text>		</g>
		<g id="shape117-233" v:mID="117" v:groupContext="shape" transform="translate(387,-227.25)">
			<title>Sheet.117</title>
			<desc>h</desc>
			<v:textBlock v:margins="rect(0,0,0,0)"/>
			<v:textRect cx="6.75" cy="785.25" width="13.5" height="13.5"/>
			<rect x="0" y="778.5" width="13.5" height="13.5" class="st10"/>
			<text x="4.28" y="787.95" class="st8" v:langID="1031"><v:paragraph v:horizAlign="1"/><v:tabList/>h</text>		</g>
		<g id="shape119-236" v:mID="119" v:groupContext="shape" transform="translate(315,-306)">
			<title>Sheet.119</title>
			<desc>Blob</desc>
			<v:textBlock v:margins="rect(4,4,4,4)"/>
			<v:textRect cx="45" cy="783" width="90" height="18"/>
			<rect x="0" y="774" width="90" height="18" rx="4.5" ry="4.5" class="st6"/>
			<text x="34.04" y="786.6" class="st2" v:langID="1031"><v:paragraph v:horizAlign="1"/><v:tabList/>Blob</text>		</g>
		<g id="shape120-239" v:mID="120" v:groupContext="shape" transform="translate(315,1341) rotate(180)">
			<title>Sheet.120</title>
			<path d="M18 792 L18 760.5 A4.5 4.5 -180 0 0 13.5 756 L3.27 756" class="st3"/>
		</g>
		<g id="shape121-244" v:mID="121" v:groupContext="shape" transform="translate(423,-207) scale(-1,1)">
			<title>Sheet.121</title>
			<path d="M18 792 L4.5 792 A4.5 4.5 0 0 1 0 787.5 L0 756" class="st5"/>
		</g>
		<g id="shape122-247" v:mID="122" v:groupContext="shape" transform="translate(387,-308.25)">
			<title>Sheet.122</title>
			<desc>b</desc>
			<v:textBlock v:margins="rect(0,0,0,0)"/>
			<v:textRect cx="6.75" cy="785.25" width="13.5" height="13.5"/>
			<rect x="0" y="778.5" width="13.5" height="13.5" class="st10"/>
			<text x="4.28" y="787.95" class="st8" v:langID="1031"><v:paragraph v:horizAlign="1"/><v:tabList/>b</text>		</g>
		<g id="shape124-250" v:mID="124" v:groupContext="shape" transform="translate(315,-279)">
			<title>Sheet.124</title>
			<desc>BitVector</desc>
			<v:textBlock v:margins="rect(4,4,4,4)"/>
			<v:textRect cx="45" cy="783" width="90" height="18"/>
			<rect x="0" y="774" width="90" height="18" rx="4.5" ry="4.5" class="st6"/>
			<text x="22.16" y="786.6" class="st2" v:langID="1031"><v:paragraph v:horizAlign="1"/><v:tabList/>BitVector</text>		</g>
		<g id="shape125-253" v:mID="125" v:groupContext="shape" transform="translate(315,1368) rotate(180)">
			<title>Sheet.125</title>
			<path d="M18 792 L18 760.5 A4.5 4.5 -180 0 0 13.5 756 L3.27 756" class="st3"/>
		</g>
		<g id="shape126-258" v:mID="126" v:groupContext="shape" transform="translate(423,-180) scale(-1,1)">
			<title>Sheet.126</title>
			<path d="M18 792 L4.5 792 A4.5 4.5 0 0 1 0 787.5 L0 756" class="st5"/>
		</g>
		<g id="shape127-261" v:mID="127" v:groupContext="shape" transform="translate(387,-281.25)">
			<title>Sheet.127</title>
			<desc>B</desc>
			<v:textBlock v:margins="rect(0,0,0,0)"/>
			<v:textRect cx="6.75" cy="785.25" width="13.5" height="13.5"/>
			<rect x="0" y="778.5" width="13.5" height="13.5" class="st10"/>
			<text x="4.28" y="787.95" class="st8" v:langID="1031"><v:paragraph v:horizAlign="1"/><v:tabList/>B</text>		</g>
		<g id="shape129-264" v:mID="129" v:groupContext="shape" transform="translate(315,-144)">
			<title>Sheet.129</title>
			<desc>string</desc>
			<v:textBlock v:margins="rect(4,4,4,4)"/>
			<v:textRect cx="45" cy="783" width="90" height="18"/>
			<rect x="0" y="774" width="90" height="18" rx="4.5" ry="4.5" class="st7"/>
			<text x="31.2" y="786.6" class="st2" v:langID="1031"><v:paragraph v:horizAlign="1"/><v:tabList/>string</text>		</g>
		<g id="shape130-267" v:mID="130" v:groupContext="shape" transform="translate(315,1395) rotate(180)">
			<title>Sheet.130</title>
			<path d="M18 792 L18 760.5 A4.5 4.5 -180 0 0 13.5 756 L3.27 756" class="st3"/>
		</g>
		<g id="shape131-272" v:mID="131" v:groupContext="shape" transform="translate(423,-153) scale(-1,1)">
			<title>Sheet.131</title>
			<path d="M18 792 L4.5 792 A4.5 4.5 0 0 1 0 787.5 L0 756" class="st5"/>
		</g>
		<g id="shape132-275" v:mID="132" v:groupContext="shape" transform="translate(387,-146.25)">
			<title>Sheet.132</title>
			<desc>s</desc>
			<v:textBlock v:margins="rect(0,0,0,0)"/>
			<v:textRect cx="6.75" cy="785.25" width="13.5" height="13.5"/>
			<rect x="0" y="778.5" width="13.5" height="13.5" class="st10"/>
			<text x="4.28" y="787.95" class="st8" v:langID="1031"><v:paragraph v:horizAlign="1"/><v:tabList/>s</text>		</g>
		<g id="shape134-278" v:mID="134" v:groupContext="shape" transform="translate(315,-117)">
			<title>Sheet.134</title>
			<desc>symbol</desc>
			<v:textBlock v:margins="rect(4,4,4,4)"/>
			<v:textRect cx="45" cy="783" width="90" height="18"/>
			<rect x="0" y="774" width="90" height="18" rx="4.5" ry="4.5" class="st7"/>
			<text x="27.45" y="786.6" class="st2" v:langID="1031"><v:paragraph v:horizAlign="1"/><v:tabList/>symbol</text>		</g>
		<g id="shape135-281" v:mID="135" v:groupContext="shape" transform="translate(315,1422) rotate(180)">
			<title>Sheet.135</title>
			<path d="M18 792 L18 760.5 A4.5 4.5 -180 0 0 13.5 756 L3.27 756" class="st3"/>
		</g>
		<g id="shape136-286" v:mID="136" v:groupContext="shape" transform="translate(423,-126) scale(-1,1)">
			<title>Sheet.136</title>
			<path d="M18 792 L4.5 792 A4.5 4.5 0 0 1 0 787.5 L0 756" class="st5"/>
		</g>
		<g id="shape137-289" v:mID="137" v:groupContext="shape" transform="translate(387,-119.25)">
			<title>Sheet.137</title>
			<desc>S</desc>
			<v:textBlock v:margins="rect(0,0,0,0)"/>
			<v:textRect cx="6.75" cy="785.25" width="13.5" height="13.5"/>
			<rect x="0" y="778.5" width="13.5" height="13.5" class="st10"/>
			<text x="4.28" y="787.95" class="st8" v:langID="1031"><v:paragraph v:horizAlign="1"/><v:tabList/>S</text>		</g>
		<g id="shape139-292" v:mID="139" v:groupContext="shape" transform="translate(315,-171)">
			<title>Sheet.139</title>
			<desc>float64</desc>
			<v:textBlock v:margins="rect(4,4,4,4)"/>
			<v:textRect cx="45" cy="783" width="90" height="18"/>
			<rect x="0" y="774" width="90" height="18" rx="4.5" ry="4.5" class="st7"/>
			<text x="27.66" y="786.6" class="st2" v:langID="1031"><v:paragraph v:horizAlign="1"/><v:tabList/>float64</text>		</g>
		<g id="shape140-295" v:mID="140" v:groupContext="shape" transform="translate(315,1314) rotate(180)">
			<title>Sheet.140</title>
			<path d="M18 792 L18 760.5 A4.5 4.5 -180 0 0 13.5 756 L3.27 756" class="st3"/>
		</g>
		<g id="shape141-300" v:mID="141" v:groupContext="shape" transform="translate(423,-234) scale(-1,1)">
			<title>Sheet.141</title>
			<path d="M18 792 L4.5 792 A4.5 4.5 0 0 1 0 787.5 L0 756" class="st5"/>
		</g>
		<g id="shape142-303" v:mID="142" v:groupContext="shape" transform="translate(387,-173.25)">
			<title>Sheet.142</title>
			<desc>d</desc>
			<v:textBlock v:margins="rect(0,0,0,0)"/>
			<v:textRect cx="6.75" cy="785.25" width="13.5" height="13.5"/>
			<rect x="0" y="778.5" width="13.5" height="13.5" class="st10"/>
			<text x="4.28" y="787.95" class="st8" v:langID="1031"><v:paragraph v:horizAlign="1"/><v:tabList/>d</text>		</g>
		<g id="shape144-306" v:mID="144" v:groupContext="shape" transform="translate(315,-198)">
			<title>Sheet.144</title>
			<desc>float32</desc>
			<v:textBlock v:margins="rect(4,4,4,4)"/>
			<v:textRect cx="45" cy="783" width="90" height="18"/>
			<rect x="0" y="774" width="90" height="18" rx="4.5" ry="4.5" class="st7"/>
			<text x="27.66" y="786.6" class="st2" v:langID="1031"><v:paragraph v:horizAlign="1"/><v:tabList/>float32</text>		</g>
		<g id="shape145-309" v:mID="145" v:groupContext="shape" transform="translate(315,1287) rotate(180)">
			<title>Sheet.145</title>
			<path d="M18 792 L18 760.5 A4.5 4.5 -180 0 0 13.5 756 L3.27 756" class="st3"/>
		</g>
		<g id="shape146-314" v:mID="146" v:groupContext="shape" transform="translate(423,-261) scale(-1,1)">
			<title>Sheet.146</title>
			<path d="M18 792 L4.5 792 A4.5 4.5 0 0 1 0 787.5 L0 756" class="st5"/>
		</g>
		<g id="shape147-317" v:mID="147" v:groupContext="shape" transform="translate(387,-200.25)">
			<title>Sheet.147</title>
			<desc>f</desc>
			<v:textBlock v:margins="rect(0,0,0,0)"/>
			<v:textRect cx="6.75" cy="785.25" width="13.5" height="13.5"/>
			<rect x="0" y="778.5" width="13.5" height="13.5" class="st10"/>
			<text x="4.28" y="787.95" class="st8" v:langID="1031"><v:paragraph v:horizAlign="1"/><v:tabList/>f</text>		</g>
		<g id="shape12-320" v:mID="12" v:groupContext="shape" transform="translate(315,-477)">
			<title>Sheet.12</title>
			<desc>ArrayValue</desc>
			<v:textBlock v:margins="rect(4,4,4,4)"/>
			<v:textRect cx="45" cy="783" width="90" height="18"/>
			<rect x="0" y="774" width="90" height="18" rx="4.5" ry="4.5" class="st6"/>
			<text x="17.96" y="786.6" class="st2" v:langID="1031"><v:paragraph v:horizAlign="1"/><v:tabList/>ArrayValue</text>		</g>
		<g id="shape43-323" v:mID="43" v:groupContext="shape" transform="translate(36,-342)">
			<title>Sheet.43</title>
			<desc>Array</desc>
			<v:textBlock v:margins="rect(4,4,4,4)"/>
			<v:textRect cx="58.5" cy="783" width="117" height="18"/>
			<rect x="0" y="774" width="117" height="18" class="st1"/>
			<text x="86.51" y="786.6" class="st2" v:langID="1031"><v:paragraph v:horizAlign="2"/><v:tabList/>Array</text>		</g>
		<g id="shape54-326" v:mID="54" v:groupContext="shape" transform="translate(153,-351)">
			<title>Sheet.54</title>
			<path d="M0 792 L315 792" class="st5"/>
		</g>
		<g id="shape55-329" v:mID="55" v:groupContext="shape" transform="translate(945,436.5) rotate(90)">
			<title>Sheet.55</title>
			<path d="M0 792 L9 792" class="st5"/>
		</g>
		<g id="shape56-332" v:mID="56" v:groupContext="shape" transform="translate(1260,436.5) rotate(90)">
			<title>Sheet.56</title>
			<path d="M0 792 L9 792" class="st5"/>
		</g>
		<g id="shape59-335" v:mID="59" v:groupContext="shape" transform="translate(315,-342)">
			<title>Sheet.59</title>
			<desc>ArrayValue</desc>
			<v:textBlock v:margins="rect(4,4,4,4)"/>
			<v:textRect cx="45" cy="783" width="90" height="18"/>
			<rect x="0" y="774" width="90" height="18" rx="4.5" ry="4.5" class="st6"/>
			<text x="17.96" y="786.6" class="st2" v:langID="1031"><v:paragraph v:horizAlign="1"/><v:tabList/>ArrayValue</text>		</g>
		<g id="shape60-338" v:mID="60" v:groupContext="shape" transform="translate(171,-342)">
			<title>Sheet.60</title>
			<desc>size</desc>
			<v:textBlock v:margins="rect(4,4,4,4)"/>
			<v:textRect cx="27" cy="783" width="54" height="18"/>
			<rect x="0" y="774" width="54" height="18" rx="9" ry="9" class="st7"/>
			<text x="17.1" y="785.7" class="st8" v:langID="1031"><v:paragraph v:horizAlign="1"/><v:tabList/>size</text>		</g>
		<g id="shape61-341" v:mID="61" v:groupContext="shape" transform="translate(297,-333)">
			<title>Sheet.61</title>
			<path d="M108 774 L121.5 774 A4.5 4.5 0 0 1 126 778.5 L126 787.5 A4.5 4.5 0 0 1 121.5 792 L4.5 792 A4.5 4.5 0 0 1 0 787.5
						 L0 778.5 A4.5 4.5 0 0 1 4.5 774 L14.73 774" class="st3"/>
		</g>
		<g id="shape62-346" v:mID="62" v:groupContext="shape" transform="translate(234,-342)">
			<title>Sheet.62</title>
			<desc>length</desc>
			<v:textBlock v:margins="rect(4,4,4,4)"/>
			<v:textRect cx="27" cy="783" width="54" height="18"/>
			<rect x="0" y="774" width="54" height="18" rx="9" ry="9" class="st7"/>
			<text x="12.16" y="785.7" class="st8" v:langID="1031"><v:paragraph v:horizAlign="1"/><v:tabList/>length</text>		</g>
		<g id="shape63-349" v:mID="63" v:groupContext="shape" transform="translate(387,-506.25)">
			<title>Sheet.63</title>
			<desc>[]</desc>
			<v:textBlock v:margins="rect(0,0,0,0)"/>
			<v:textRect cx="6.75" cy="785.25" width="13.5" height="13.5"/>
			<rect x="0" y="778.5" width="13.5" height="13.5" class="st10"/>
			<text x="1.8" y="787.95" class="st8" v:langID="1031"><v:paragraph v:horizAlign="1"/><v:tabList/>[]</text>		</g>
		<g id="shape64-352" v:mID="64" v:groupContext="shape" transform="translate(202.5,-643.5)">
			<title>Sheet.64</title>
			<desc>int32</desc>
			<v:textBlock v:margins="rect(0,0,0,0)"/>
			<v:textRect cx="27" cy="785.25" width="54" height="13.5"/>
			<rect x="0" y="778.5" width="54" height="13.5" class="st11"/>
			<text x="14.63" y="787.95" class="st8" v:langID="1031"><v:paragraph v:horizAlign="1"/><v:tabList/>int32</text>		</g>
		<g id="shape65-355" v:mID="65" v:groupContext="shape" transform="translate(171,-589.5)">
			<title>Sheet.65</title>
			<desc>8bytes</desc>
			<v:textBlock v:margins="rect(0,0,0,0)"/>
			<v:textRect cx="27" cy="785.25" width="54" height="13.5"/>
			<rect x="0" y="778.5" width="54" height="13.5" class="st11"/>
			<text x="12.16" y="787.95" class="st8" v:langID="1031"><v:paragraph v:horizAlign="1"/><v:tabList/>8bytes</text>		</g>
		<g id="shape66-358" v:mID="66" v:groupContext="shape" transform="translate(234,-589.5)">
			<title>Sheet.66</title>
			<desc>int64</desc>
			<v:textBlock v:margins="rect(0,0,0,0)"/>
			<v:textRect cx="27" cy="785.25" width="54" height="13.5"/>
			<rect x="0" y="778.5" width="54" height="13.5" class="st11"/>
			<text x="14.63" y="787.95" class="st8" v:langID="1031"><v:paragraph v:horizAlign="1"/><v:tabList/>int64</text>		</g>
		<g id="shape67-361" v:mID="67" v:groupContext="shape" transform="translate(234,-553.5)">
			<title>Sheet.67</title>
			<desc>string</desc>
			<v:textBlock v:margins="rect(0,0,0,0)"/>
			<v:textRect cx="27" cy="785.25" width="54" height="13.5"/>
			<rect x="0" y="778.5" width="54" height="13.5" class="st11"/>
			<text x="12.16" y="787.95" class="st8" v:langID="1031"><v:paragraph v:horizAlign="1"/><v:tabList/>string</text>		</g>
		<g id="shape68-364" v:mID="68" v:groupContext="shape" transform="translate(171,-553.5)">
			<title>Sheet.68</title>
			<desc>string</desc>
			<v:textBlock v:margins="rect(0,0,0,0)"/>
			<v:textRect cx="27" cy="785.25" width="54" height="13.5"/>
			<rect x="0" y="778.5" width="54" height="13.5" class="st11"/>
			<text x="12.16" y="787.95" class="st8" v:langID="1031"><v:paragraph v:horizAlign="1"/><v:tabList/>string</text>		</g>
		<g id="shape70-367" v:mID="70" v:groupContext="shape" transform="translate(171,-328.5)">
			<title>Sheet.70</title>
			<desc>int32</desc>
			<v:textBlock v:margins="rect(0,0,0,0)"/>
			<v:textRect cx="27" cy="785.25" width="54" height="13.5"/>
			<rect x="0" y="778.5" width="54" height="13.5" class="st11"/>
			<text x="14.63" y="787.95" class="st8" v:langID="1031"><v:paragraph v:horizAlign="1"/><v:tabList/>int32</text>		</g>
		<g id="shape71-370" v:mID="71" v:groupContext="shape" transform="translate(234,-328.5)">
			<title>Sheet.71</title>
			<desc>int32</desc>
			<v:textBlock v:margins="rect(0,0,0,0)"/>
			<v:textRect cx="27" cy="785.25" width="54" height="13.5"/>
			<rect x="0" y="778.5" width="54" height="13.5" class="st11"/>
			<text x="14.63" y="787.95" class="st8" v:langID="1031"><v:paragraph v:horizAlign="1"/><v:tabList/>int32</text>		</g>
		<g id="shape69-373" v:mID="69" v:groupContext="shape" transform="translate(153,-99)">
			<title>Sheet.69</title>
			<path d="M0 792 L315 792" class="st5"/>
		</g>
		<g id="shape72-376" v:mID="72" v:groupContext="shape" transform="translate(945,688.5) rotate(90)">
			<title>Sheet.72</title>
			<path d="M0 792 L9 792" class="st5"/>
		</g>
		<g id="shape73-379" v:mID="73" v:groupContext="shape" transform="translate(1260,688.5) rotate(90)">
			<title>Sheet.73</title>
			<path d="M0 792 L9 792" class="st5"/>
		</g>
		<g id="shape74-382" v:mID="74" v:groupContext="shape" transform="translate(315,-90)">
			<title>Sheet.74</title>
			<desc>byte</desc>
			<v:textBlock v:margins="rect(4,4,4,4)"/>
			<v:textRect cx="45" cy="783" width="90" height="18"/>
			<rect x="0" y="774" width="90" height="18" rx="4.5" ry="4.5" class="st7"/>
			<text x="34.14" y="786.6" class="st2" v:langID="1031"><v:paragraph v:horizAlign="1"/><v:tabList/>byte</text>		</g>
		<g id="shape76-385" v:mID="76" v:groupContext="shape" transform="translate(297,-81)">
			<title>Sheet.76</title>
			<path d="M108 774 L121.5 774 A4.5 4.5 0 0 1 126 778.5 L126 787.5 A4.5 4.5 0 0 1 121.5 792 L4.5 792 A4.5 4.5 0 0 1 0 787.5
						 L0 778.5 A4.5 4.5 0 0 1 4.5 774 L14.73 774" class="st3"/>
		</g>
		<g id="shape77-390" v:mID="77" v:groupContext="shape" transform="translate(202.5,-90)">
			<title>Sheet.77</title>
			<desc>length</desc>
			<v:textBlock v:margins="rect(4,4,4,4)"/>
			<v:textRect cx="27" cy="783" width="54" height="18"/>
			<rect x="0" y="774" width="54" height="18" rx="9" ry="9" class="st7"/>
			<text x="12.16" y="785.7" class="st8" v:langID="1031"><v:paragraph v:horizAlign="1"/><v:tabList/>length</text>		</g>
		<g id="shape79-393" v:mID="79" v:groupContext="shape" transform="translate(202.5,-76.5)">
			<title>Sheet.79</title>
			<desc>int32</desc>
			<v:textBlock v:margins="rect(0,0,0,0)"/>
			<v:textRect cx="27" cy="785.25" width="54" height="13.5"/>
			<rect x="0" y="778.5" width="54" height="13.5" class="st11"/>
			<text x="14.63" y="787.95" class="st8" v:langID="1031"><v:paragraph v:horizAlign="1"/><v:tabList/>int32</text>		</g>
		<g id="shape75-396" v:mID="75" v:groupContext="shape" transform="translate(36,-90)">
			<title>Sheet.75</title>
			<desc>Blob</desc>
			<v:textBlock v:margins="rect(4,4,4,4)"/>
			<v:textRect cx="58.5" cy="783" width="117" height="18"/>
			<rect x="0" y="774" width="117" height="18" class="st1"/>
			<text x="91.09" y="786.6" class="st2" v:langID="1031"><v:paragraph v:horizAlign="2"/><v:tabList/>Blob</text>		</g>
		<g id="shape78-399" v:mID="78" v:groupContext="shape" transform="translate(423,-252)">
			<title>Sheet.78</title>
			<desc>4 bytes</desc>
			<v:textBlock v:margins="rect(0,0,0,0)"/>
			<v:textRect cx="27" cy="783" width="54" height="18"/>
			<rect x="0" y="774" width="54" height="18" class="st11"/>
			<text x="9.68" y="785.7" class="st8" v:langID="1031"><v:paragraph v:horizAlign="1"/><v:tabList/>4 bytes</text>		</g>
		<g id="shape80-402" v:mID="80" v:groupContext="shape" transform="translate(423,-225)">
			<title>Sheet.80</title>
			<desc>8 bytes</desc>
			<v:textBlock v:margins="rect(0,0,0,0)"/>
			<v:textRect cx="27" cy="783" width="54" height="18"/>
			<rect x="0" y="774" width="54" height="18" class="st11"/>
			<text x="9.68" y="785.7" class="st8" v:langID="1031"><v:paragraph v:horizAlign="1"/><v:tabList/>8 bytes</text>		</g>
		<g id="shape81-405" v:mID="81" v:groupContext="shape" transform="translate(423,-198)">
			<title>Sheet.81</title>
			<desc>4 bytes</desc>
			<v:textBlock v:margins="rect(0,0,0,0)"/>
			<v:textRect cx="27" cy="783" width="54" height="18"/>
			<rect x="0" y="774" width="54" height="18" class="st11"/>
			<text x="9.68" y="785.7" class="st8" v:langID="1031"><v:paragraph v:horizAlign="1"/><v:tabList/>4 bytes</text>		</g>
		<g id="shape82-408" v:mID="82" v:groupContext="shape" transform="translate(423,-171)">
			<title>Sheet.82</title>
			<desc>8 bytes</desc>
			<v:textBlock v:margins="rect(0,0,0,0)"/>
			<v:textRect cx="27" cy="783" width="54" height="18"/>
			<rect x="0" y="774" width="54" height="18" class="st11"/>
			<text x="9.68" y="785.7" class="st8" v:langID="1031"><v:paragraph v:horizAlign="1"/><v:tabList/>8 bytes</text>		</g>
		<g id="shape83-411" v:mID="83" v:groupContext="shape" transform="translate(153,-63)">
			<title>Sheet.83</title>
			<path d="M0 792 L315 792" class="st5"/>
		</g>
		<g id="shape84-414" v:mID="84" v:groupContext="shape" transform="translate(945,724.5) rotate(90)">
			<title>Sheet.84</title>
			<path d="M0 792 L9 792" class="st5"/>
		</g>
		<g id="shape85-417" v:mID="85" v:groupContext="shape" transform="translate(1260,724.5) rotate(90)">
			<title>Sheet.85</title>
			<path d="M0 792 L9 792" class="st5"/>
		</g>
		<g id="shape86-420" v:mID="86" v:groupContext="shape" transform="translate(315,-54)">
			<title>Sheet.86</title>
			<desc>byte</desc>
			<v:textBlock v:margins="rect(4,4,4,4)"/>
			<v:textRect cx="45" cy="783" width="90" height="18"/>
			<rect x="0" y="774" width="90" height="18" rx="4.5" ry="4.5" class="st7"/>
			<text x="34.14" y="786.6" class="st2" v:langID="1031"><v:paragraph v:horizAlign="1"/><v:tabList/>byte</text>		</g>
		<g id="shape87-423" v:mID="87" v:groupContext="shape" transform="translate(297,-45)">
			<title>Sheet.87</title>
			<path d="M108 774 L121.5 774 A4.5 4.5 0 0 1 126 778.5 L126 787.5 A4.5 4.5 0 0 1 121.5 792 L4.5 792 A4.5 4.5 0 0 1 0 787.5
						 L0 778.5 A4.5 4.5 0 0 1 4.5 774 L14.73 774" class="st3"/>
		</g>
		<g id="shape88-428" v:mID="88" v:groupContext="shape" transform="translate(202.5,-54)">
			<title>Sheet.88</title>
			<desc>length</desc>
			<v:textBlock v:margins="rect(4,4,4,4)"/>
			<v:textRect cx="27" cy="783" width="54" height="18"/>
			<rect x="0" y="774" width="54" height="18" rx="9" ry="9" class="st7"/>
			<text x="12.16" y="785.7" class="st8" v:langID="1031"><v:paragraph v:horizAlign="1"/><v:tabList/>length</text>		</g>
		<g id="shape89-431" v:mID="89" v:groupContext="shape" transform="translate(202.5,-40.5)">
			<title>Sheet.89</title>
			<desc>int32</desc>
			<v:textBlock v:margins="rect(0,0,0,0)"/>
			<v:textRect cx="27" cy="785.25" width="54" height="13.5"/>
			<rect x="0" y="778.5" width="54" height="13.5" class="st11"/>
			<text x="14.63" y="787.95" class="st8" v:langID="1031"><v:paragraph v:horizAlign="1"/><v:tabList/>int32</text>		</g>
		<g id="shape90-434" v:mID="90" v:groupContext="shape" transform="translate(36,-54)">
			<title>Sheet.90</title>
			<desc>BitVector</desc>
			<v:textBlock v:margins="rect(4,4,4,4)"/>
			<v:textRect cx="58.5" cy="783" width="117" height="18"/>
			<rect x="0" y="774" width="117" height="18" class="st1"/>
			<text x="67.31" y="786.6" class="st2" v:langID="1031"><v:paragraph v:horizAlign="2"/><v:tabList/>BitVector</text>		</g>
		<g id="shape115-437" v:mID="115" v:groupContext="shape" transform="translate(238.5,-569.25)">
			<title>Sheet.115</title>
			<desc>,</desc>
			<v:textBlock v:margins="rect(0,0,0,0)"/>
			<v:textRect cx="4.5" cy="785.25" width="9" height="13.5"/>
			<rect x="0" y="778.5" width="9" height="13.5" class="st10"/>
			<text x="2.03" y="787.95" class="st8" v:langID="1031"><v:paragraph v:horizAlign="1"/><v:tabList/>,</text>		</g>
		<g id="shape118-440" v:mID="118" v:groupContext="shape" transform="translate(423,-144)">
			<title>Sheet.118</title>
			<desc>UTF8</desc>
			<v:textBlock v:margins="rect(0,0,0,0)"/>
			<v:textRect cx="27" cy="783" width="54" height="18"/>
			<rect x="0" y="774" width="54" height="18" class="st11"/>
			<text x="17.1" y="785.7" class="st8" v:langID="1031"><v:paragraph v:horizAlign="1"/><v:tabList/>UTF8</text>		</g>
		<g id="shape123-443" v:mID="123" v:groupContext="shape" transform="translate(423,-117)">
			<title>Sheet.123</title>
			<desc>UTF8</desc>
			<v:textBlock v:margins="rect(0,0,0,0)"/>
			<v:textRect cx="27" cy="783" width="54" height="18"/>
			<rect x="0" y="774" width="54" height="18" class="st11"/>
			<text x="17.1" y="785.7" class="st8" v:langID="1031"><v:paragraph v:horizAlign="1"/><v:tabList/>UTF8</text>		</g>
		<g id="shape148-446" v:mID="148" v:groupContext="shape" transform="translate(315,-603)">
			<title>Sheet.148</title>
			<desc>esize</desc>
			<v:textBlock v:margins="rect(4,4,4,4)"/>
			<v:textRect cx="18" cy="783" width="36" height="18"/>
			<rect x="0" y="774" width="36" height="18" rx="9" ry="9" class="st7"/>
			<text x="8.95" y="785.7" class="st12" v:langID="1033"><v:paragraph v:horizAlign="1"/><v:tabList/>esize</text>		</g>
		<g id="shape149-449" v:mID="149" v:groupContext="shape" transform="translate(306,-591.75)">
			<title>Sheet.149</title>
			<desc>int32</desc>
			<v:textBlock v:margins="rect(0,0,0,0)"/>
			<v:textRect cx="27" cy="785.25" width="54" height="13.5"/>
			<rect x="0" y="778.5" width="54" height="13.5" class="st11"/>
			<text x="14.63" y="787.95" class="st8" v:langID="1031"><v:paragraph v:horizAlign="1"/><v:tabList/>int32</text>		</g>
	</g>
</svg>
